<svg width="170" height="40" viewBox="0 0 170 40" fill="none" xmlns="http://www.w3.org/2000/svg">
<path d="M4.08791 4.41784H0.14169C0.0154889 4.41784 -0.0476118 4.57826 0.0421854 4.67247L4.09034 8.91972V35.1645C4.09034 35.381 4.2578 35.5541 4.46166 35.5541H12.1988C12.4051 35.5541 12.5701 35.3784 12.5701 35.1645V4.41784H4.08791Z" fill="#FEBD0D"/>
<path d="M19.118 8.86372H15.1694C15.0432 8.86372 14.9801 9.02414 15.0699 9.11835L19.118 13.3656V39.6104C19.118 39.8269 19.2855 40 19.4893 40H27.2265C27.4328 40 27.5978 39.8243 27.5978 39.6104V8.86372H19.118Z" fill="#FEBD0D"/>
<path d="M33.7671 0H29.8184C29.6922 0 29.6291 0.160418 29.7189 0.254631L33.7671 4.50188V30.7467C33.7671 30.9631 33.9346 31.1363 34.1384 31.1363H41.8755C42.0818 31.1363 42.2469 30.9606 42.2469 30.7467V0H33.7671Z" fill="#FEBD0D"/>
<path d="M148.13 14.6158C146.812 13.7144 145.196 13.2612 143.278 13.2612C141.82 13.2612 140.519 13.5311 139.373 14.0658C138.23 14.6031 137.277 15.3288 136.515 16.2429C135.752 17.157 135.17 18.1908 134.767 19.3443C134.364 20.4978 134.163 21.7048 134.163 22.9601V23.645C134.163 24.8571 134.364 26.0386 134.767 27.192C135.17 28.3455 135.757 29.3844 136.532 30.3113C137.303 31.2356 138.274 31.974 139.439 32.5215C140.604 33.0689 141.948 33.3439 143.475 33.3439C145.002 33.3439 146.305 33.0689 147.46 32.5215C148.615 31.974 149.572 31.2076 150.336 30.2247C151.059 29.2902 151.559 28.2335 151.831 27.052C151.853 26.9578 151.782 26.8636 151.69 26.8636H147.159C147.103 26.8636 147.057 26.8967 147.035 26.9501C146.81 27.4849 146.407 27.9356 145.829 28.3022C145.22 28.6918 144.436 28.8853 143.477 28.8853C142.431 28.8853 141.582 28.6562 140.929 28.2004C140.276 27.7446 139.796 27.0978 139.492 26.2626C139.342 25.8501 139.23 25.3969 139.155 24.9131C139.14 24.8214 139.208 24.7374 139.298 24.7374H152.059C152.137 24.7374 152.202 24.6712 152.202 24.5872V22.8862C152.202 21.1726 151.853 19.5913 151.156 18.1399C150.46 16.6885 149.453 15.5121 148.135 14.6107L148.13 14.6158ZM147.06 21.6233H139.335C139.245 21.6233 139.177 21.5367 139.194 21.4425C139.274 21.0172 139.383 20.6251 139.522 20.2686C139.849 19.4334 140.327 18.7994 140.958 18.3665C141.589 17.9337 142.363 17.7147 143.278 17.7147C144.193 17.7147 144.917 17.926 145.516 18.3487C146.116 18.7714 146.567 19.3825 146.873 20.1821C147.018 20.564 147.128 20.9867 147.203 21.445C147.217 21.5367 147.149 21.6207 147.062 21.6207L147.06 21.6233Z" fill="white"/>
<path d="M98.5376 16.1411C97.6881 15.2499 96.6591 14.5471 95.4505 14.0327C94.2419 13.5184 92.8634 13.2612 91.3174 13.2612C89.7714 13.2612 88.4536 13.5184 87.2328 14.0327C86.0121 14.5471 84.9733 15.2499 84.1118 16.1411C83.2502 17.0323 82.5974 18.0661 82.1508 19.2425C81.7042 20.4189 81.481 21.6589 81.481 22.9601V23.7494C81.481 25.0302 81.6994 26.2474 82.1338 27.4008C82.5682 28.5543 83.2065 29.5779 84.0462 30.4692C84.8835 31.3604 85.9126 32.0631 87.1333 32.5775C88.3517 33.0919 89.7472 33.349 91.315 33.349C92.8828 33.349 94.3098 33.0919 95.5306 32.5775C96.7489 32.0631 97.7804 31.3604 98.6177 30.4692C99.455 29.5779 100.093 28.5569 100.53 27.4008C100.965 26.2474 101.183 25.0302 101.183 23.7494V22.9601C101.183 21.6589 100.955 20.4189 100.496 19.2425C100.037 18.0661 99.3846 17.0323 98.5351 16.1411H98.5376ZM95.4189 26.115C95.0598 26.9374 94.5428 27.5765 93.8657 28.0349C93.191 28.4932 92.3416 28.7198 91.3174 28.7198C90.2932 28.7198 89.4996 28.4907 88.8006 28.0349C88.1041 27.5791 87.5799 26.9374 87.2328 26.115C86.8833 25.2925 86.711 24.3784 86.711 23.3726C86.711 22.298 86.8906 21.3559 87.2498 20.5436C87.609 19.7339 88.1381 19.0871 88.8346 18.6059C89.5312 18.1272 90.3587 17.8853 91.3174 17.8853C92.276 17.8853 93.1303 18.1246 93.8172 18.6059C94.504 19.0871 95.0306 19.7314 95.4019 20.5436C95.7733 21.3559 95.9577 22.298 95.9577 23.3726C95.9577 24.3784 95.7781 25.2925 95.4189 26.115Z" fill="#FEBD0D"/>
<path d="M131.338 7.67459H126.363C126.285 7.67459 126.219 7.74079 126.219 7.82482V16.0112C126.219 16.1538 126.045 16.2175 125.965 16.1003C125.467 15.3746 124.87 14.7839 124.161 14.3434C123.115 13.6915 121.875 13.3656 120.436 13.3656C119.174 13.3656 118.028 13.6126 117.007 14.1015C115.983 14.5929 115.106 15.2779 114.376 16.1589C113.645 17.0399 113.09 18.061 112.709 19.2272C112.328 20.3934 112.136 21.6487 112.136 22.9983V23.7876C112.136 25.1372 112.337 26.3925 112.74 27.5587C113.143 28.7249 113.725 29.7358 114.488 30.5914C115.25 31.4495 116.148 32.1166 117.184 32.5979C118.218 33.0766 119.368 33.3185 120.63 33.3185C122.045 33.3185 123.297 32.9926 124.387 32.3407C125.477 31.6888 126.341 30.7365 126.984 29.4786C127.113 29.2266 127.222 28.9566 127.326 28.6842V32.552C127.326 32.6335 127.389 32.7023 127.469 32.7023H131.335C131.413 32.7023 131.479 32.6361 131.479 32.552V7.82228C131.479 7.74079 131.416 7.67204 131.335 7.67204L131.338 7.67459ZM126.35 23.8513C126.35 24.88 126.149 25.7585 125.746 26.4918C125.343 27.2226 124.809 27.7777 124.144 28.1546C123.479 28.5314 122.744 28.7198 121.938 28.7198C121.067 28.7198 120.283 28.5034 119.587 28.068C118.89 27.6351 118.344 27.0164 117.953 26.2168C117.56 25.4173 117.366 24.4701 117.366 23.3726C117.366 22.2751 117.562 21.3559 117.953 20.5436C118.346 19.7339 118.885 19.0922 119.57 18.6237C120.256 18.1552 121.035 17.9209 121.904 17.9209C122.688 17.9209 123.419 18.1043 124.093 18.4684C124.768 18.8351 125.312 19.3596 125.727 20.0446C126.139 20.7295 126.348 21.5749 126.348 22.5807V23.8488L126.35 23.8513Z" fill="#FEBD0D"/>
<path d="M154.947 7.67458H153.166C153.04 7.67458 152.977 7.835 153.066 7.92921L154.947 9.9026V32.5495C154.947 32.631 155.01 32.6997 155.09 32.6997H160.066C160.143 32.6997 160.209 32.6335 160.209 32.5495V7.67458H154.95H154.947Z" fill="white"/>
<path d="M169.32 7.67458H162.514C162.388 7.67458 162.325 7.835 162.415 7.92921L164.296 9.9026V32.5495C164.296 32.631 164.359 32.6997 164.439 32.6997H169.414C169.492 32.6997 169.557 32.6335 169.557 32.5495V7.67458H169.322H169.32Z" fill="white"/>
<path d="M104.272 7.67458C104.195 7.67458 104.129 7.74079 104.129 7.82482C104.129 7.74333 104.066 7.67458 103.986 7.67458H102.348C102.222 7.67458 102.159 7.835 102.248 7.92921L103.887 9.64797C103.976 9.74219 104.129 9.67598 104.129 9.54358V32.5495C104.129 32.631 104.192 32.6997 104.272 32.6997H109.248C109.325 32.6997 109.391 32.6335 109.391 32.5495V7.67458H104.272Z" fill="#FEBD0D"/>
<path d="M79.6559 19.5506H66.9071C66.8294 19.5506 66.7639 19.6168 66.7639 19.7008V23.5661C66.7639 23.6476 66.827 23.7163 66.9071 23.7163H72.8629C72.9405 23.7163 73.006 23.7825 73.006 23.8666V24.2893C73.006 25.5166 72.375 26.6497 71.3557 27.2532L71.3072 27.2812C70.2175 27.9203 68.9336 28.2411 67.4508 28.2411C66.3392 28.2411 65.332 28.0476 64.4292 27.658C63.5264 27.2684 62.7692 26.7159 62.16 25.9953C61.5508 25.2747 61.0873 24.4191 60.7718 23.4235C60.4563 22.4305 60.2985 21.3279 60.2985 20.1159C60.2985 18.9038 60.4466 17.8827 60.7402 16.9101C61.0339 15.9399 61.4707 15.0996 62.0459 14.3892C62.6235 13.6813 63.3201 13.1339 64.1355 12.7443C64.9534 12.3573 65.8829 12.1612 66.929 12.1612C67.975 12.1612 68.9919 12.3547 69.8534 12.7443C70.7126 13.1339 71.4212 13.6686 71.977 14.3561C72.5085 15.0105 72.8434 15.7693 72.9866 16.6325C72.9988 16.7038 73.0546 16.7547 73.1225 16.7547H78.2046C78.2895 16.7547 78.3575 16.6758 78.3478 16.5867C78.1755 14.7126 77.6027 13.06 76.6295 11.629C75.6272 10.1547 74.2996 9.00121 72.6444 8.16602C70.9892 7.33084 69.0841 6.91579 66.9265 6.91579C64.9437 6.91579 63.1963 7.28246 61.6819 8.01325C60.1675 8.74404 58.9055 9.72691 57.891 10.9619C56.8789 12.1968 56.1217 13.5667 55.6194 15.0742C55.117 16.5816 54.867 18.1246 54.867 19.7008V20.4545C54.867 21.9849 55.117 23.5177 55.6194 25.0481C56.1193 26.5784 56.8887 27.9738 57.9225 29.2291C58.9564 30.487 60.2694 31.4851 61.8591 32.2287C63.4487 32.9722 65.3102 33.3439 67.4459 33.3439C69.8195 33.3439 71.9066 32.8805 73.7026 31.9562C73.7196 31.946 73.739 31.9384 73.756 31.9282C76.3649 30.5685 77.9328 27.6835 77.9328 24.6279V23.7494C77.9328 23.7265 77.9376 23.7036 77.9473 23.6832L79.7797 19.7619C79.8258 19.6626 79.7578 19.548 79.651 19.548L79.6559 19.5506Z" fill="#FEBD0D"/>
</svg>
